<svg height="682pt" viewBox="-21 -21 682.66669 682" width="682pt" xmlns="http://www.w3.org/2000/svg"><path d="m393.183594 388.332031-25.6875-79.453125-.183594-.546875c-8.191406-23.488281-30.21875-39.261719-54.8125-39.261719l-185.214844.011719c-24.59375 0-46.621094 15.773438-54.808594 39.25l-25.929687 80.234375c-9.1875 3.882813-17.636719 9.652344-24.875 17.148438-13.976563 14.453125-21.671875 33.402344-21.671875 53.355468v131.25c0 27.566407 22.429688 50 50 50 25.453125 0 46.507812-19.121093 49.59375-43.75h240.8125c3.085938 24.628907 24.140625 43.75 49.59375 43.75 26.167969 0 50-20.855468 50-43.75v-138.75c0-31.394531-19.394531-58.328124-46.816406-69.488281zm-265.894532-69.25 185.210938-.011719c3.238281 0 6.308594 2.269532 7.535156 5.550782l18.8125 58.199218h-237.902344l18.804688-58.199218c1.222656-3.273438 4.292969-5.539063 7.539062-5.539063zm262.710938 202.488281c0 13.78125-11.214844 25-25 25h-290c-13.785156 0-25-11.21875-25-25v-62.5c0-14.230468 11.449219-26.25 25-26.25h290c13.785156 0 25 11.214844 25 25zm-226.25-57.5h113.75v50h-113.75zm195 25c0 13.800782-11.191406 25-25 25s-25-11.199218-25-25c0-13.808593 11.191406-25 25-25s25 11.191407 25 25zm-226.25 0c0 13.800782-11.191406 25-25 25s-25-11.199218-25-25c0-13.808593 11.191406-25 25-25s25 11.191407 25 25zm401.25-138.75c-13.808594 0-25-11.199218-25-25 0-13.808593 11.191406-25 25-25s25 11.191407 25 25c0 13.800782-11.191406 25-25 25zm-376.25-163.75c13.808594 0 25 11.191407 25 25 0 13.800782-11.191406 25-25 25s-25-11.199218-25-25c0-13.808593 11.191406-25 25-25zm-107.128906 64.921876c-.246094-2.4375-.371094-4.910157-.371094-7.410157v-57.511719c0-19.953124 7.695312-38.902343 21.671875-53.359374 7.316406-7.574219 15.875-13.390626 25.183594-17.265626l25.664062-76.492187c8.222657-23.40625 30.214844-39.121094 54.765625-39.121094h185.214844c24.550781 0 46.542969 15.714844 54.765625 39.121094l5.71875 20.859375h-53.203125c-1.347656-2.957031-4.230469-10-7.28125-10h-185.214844c-3.300781 0-6.425781 2.375-7.601562 5.738281l-.074219.210938-17.609375 54.058593h84.328125c-4.492187 7.03125-8.226563 14.652344-11.0625 22.777344l-.285156.820313-8.53125 26.402343h-91.449219c-13.550781 0-25 12.019532-25 26.25v36.0625c-18.90625 4.980469-36.039062 15.019532-49.628906 28.859376zm589.628906 42.578124v138.75c0 22.894532-23.832031 43.75-50 43.75-25.453125 0-46.507812-19.121093-49.59375-43.75h-52.921875c-3.757813-18.46875-11.605469-35.460937-22.546875-50h100.0625c13.785156 0 25-11.21875 25-25v-63.75c0-13.785156-11.214844-25-25-25h-161.554688c-19.59375-30.652343-53.671874-50-90.953124-50h225.824218l-18.253906-53.152343c-1.136719-3.25-4.261719-5.597657-7.5625-5.597657h-185.214844c-3.285156 0-6.394531 2.328126-7.582031 5.671876l-18.183594 54.316406-52.855469.011718 23.8125-70.753906c8.1875-23.476562 30.214844-39.246094 54.808594-39.246094h185.214844c24.59375 0 46.621094 15.769532 54.808594 39.246094l25.746094 74.964844c27.492187 11.132812 46.945312 38.101562 46.945312 69.539062zm-206.558594 56.25-16.167968-50h60.226562v50zm0 0"/></svg>